<svg width="24" height="24" viewBox="0 0 24 24" fill="none" xmlns="http://www.w3.org/2000/svg">
<g clip-path="url(#clip0_946_5445)">
<path d="M22 13.478V18C22 18.7956 21.6839 19.5587 21.1213 20.1213C20.5587 20.6839 19.7956 21 19 21H5C4.20435 21 3.44129 20.6839 2.87868 20.1213C2.31607 19.5587 2 18.7956 2 18V13.478L2.553 13.755C5.48393 15.2312 8.72004 16 12.0017 15.9996C15.2834 15.9993 18.5194 15.2298 21.45 13.753L22 13.478ZM14 2C14.7956 2 15.5587 2.31607 16.1213 2.87868C16.6839 3.44129 17 4.20435 17 5V6H19C19.7956 6 20.5587 6.31607 21.1213 6.87868C21.6839 7.44129 22 8.20435 22 9V11.242L20.553 11.966C17.964 13.2711 15.1107 13.9664 12.2116 13.9986C9.31243 14.0309 6.44435 13.3992 3.827 12.152L3.18 11.832L2 11.242V9C2 8.20435 2.31607 7.44129 2.87868 6.87868C3.44129 6.31607 4.20435 6 5 6H7V5C7 4.20435 7.31607 3.44129 7.87868 2.87868C8.44129 2.31607 9.20435 2 10 2H14ZM12 10C11.7348 10 11.4804 10.1054 11.2929 10.2929C11.1054 10.4804 11 10.7348 11 11C10.9993 11.1313 11.0246 11.2615 11.0742 11.3831C11.1239 11.5046 11.197 11.6152 11.2894 11.7086C11.3818 11.8019 11.4916 11.8761 11.6127 11.927C11.7338 11.9778 11.8637 12.0043 11.995 12.005C12.1263 12.0057 12.2565 11.9804 12.3781 11.9308C12.4996 11.8811 12.6102 11.808 12.7036 11.7156C12.7969 11.6232 12.8711 11.5134 12.922 11.3923C12.9728 11.2712 12.9993 11.1413 13 11.01C13 10.448 12.552 10 12 10ZM14 4H10C9.73478 4 9.48043 4.10536 9.29289 4.29289C9.10536 4.48043 9 4.73478 9 5V6H15V5C15 4.73478 14.8946 4.48043 14.7071 4.29289C14.5196 4.10536 14.2652 4 14 4Z" fill="black"/>
</g>
<defs>
<clipPath id="clip0_946_5445">
<rect width="24" height="24" fill="white"/>
</clipPath>
</defs>
</svg>
