<svg width="30" height="24" viewBox="0 0 30 24" fill="none" xmlns="http://www.w3.org/2000/svg">
<g clip-path="url(#clip0_1040_561)">
<g clip-path="url(#clip1_1040_561)">
<path d="M9.75051 16.5C15.1365 16.5 19.5005 12.8062 19.5005 8.25C19.5005 3.69375 15.1365 0 9.75051 0C4.36458 0 0.000513021 3.69375 0.000513021 8.25C0.000513021 10.0594 0.689575 11.7328 1.85676 13.0969C1.6927 13.5375 1.44895 13.9266 1.19114 14.2547C0.966138 14.5453 0.736451 14.7703 0.567701 14.925C0.483326 15 0.413013 15.0609 0.366138 15.0984C0.342701 15.1172 0.32395 15.1312 0.314575 15.1359L0.305201 15.1453C0.047388 15.3375 -0.065112 15.675 0.038013 15.9797C0.141138 16.2844 0.427076 16.5 0.750513 16.5C1.77239 16.5 2.80364 16.2375 3.66145 15.9141C4.0927 15.75 4.49583 15.5672 4.84739 15.3797C6.28645 16.0922 7.95989 16.5 9.75051 16.5ZM21.0005 8.25C21.0005 13.5141 16.3552 17.4797 10.8521 17.9531C11.9911 21.4406 15.7693 24 20.2505 24C22.0411 24 23.7146 23.5922 25.1583 22.8797C25.5099 23.0672 25.9083 23.25 26.3396 23.4141C27.1974 23.7375 28.2286 24 29.2505 24C29.5739 24 29.8646 23.7891 29.963 23.4797C30.0615 23.1703 29.9536 22.8328 29.6911 22.6406L29.6818 22.6312C29.6724 22.6219 29.6536 22.6125 29.6302 22.5938C29.5833 22.5562 29.513 22.5 29.4286 22.4203C29.2599 22.2656 29.0302 22.0406 28.8052 21.75C28.5474 21.4219 28.3036 21.0281 28.1396 20.5922C29.3068 19.2328 29.9958 17.5594 29.9958 15.7453C29.9958 11.3953 26.0161 7.82812 20.9677 7.51875C20.9865 7.75781 20.9958 8.00156 20.9958 8.24531L21.0005 8.25Z" fill="black"/>
</g>
</g>
<defs>
<clipPath id="clip0_1040_561">
<rect width="30" height="24" fill="white"/>
</clipPath>
<clipPath id="clip1_1040_561">
<path d="M0 0H30V24H0V0Z" fill="white"/>
</clipPath>
</defs>
</svg>
