<svg width="24" height="24" viewBox="0 0 24 24" fill="none" xmlns="http://www.w3.org/2000/svg">
<g clip-path="url(#clip0_946_5433)">
<g clip-path="url(#clip1_946_5433)">
<path d="M21.2533 5.385L23.9983 2.64L21.3583 0L18.6133 2.745V4.02L15.9133 6.765C14.8991 5.99503 13.6753 5.5505 12.4033 5.49C11.6303 5.4525 10.8579 5.57578 10.135 5.85204C9.41208 6.1283 8.75432 6.55154 8.20333 7.095C7.58474 7.66774 7.07634 8.34899 6.70333 9.105C6.63464 9.30211 6.51572 9.4779 6.35833 9.615C6.1639 9.63619 5.96775 9.63619 5.77333 9.615C5.10222 9.51105 4.41592 9.57139 3.77325 9.79084C3.13057 10.0103 2.5507 10.3823 2.08333 10.875C1.38535 11.5694 0.839526 12.4014 0.48057 13.3181C0.121613 14.2349 -0.0426169 15.2163 -0.00167452 16.2C0.0974489 18.2832 0.987604 20.2502 2.48722 21.6996C3.98683 23.1491 5.98292 23.9718 8.06833 24C9.01057 24.0076 9.945 23.8286 10.8177 23.4733C11.6905 23.118 12.4843 22.5935 13.1533 21.93C13.6433 21.4612 14.0125 20.8806 14.2294 20.238C14.4462 19.5954 14.5041 18.9099 14.3983 18.24C14.3771 18.0456 14.3771 17.8494 14.3983 17.655C14.5376 17.5001 14.7127 17.3816 14.9083 17.31C15.668 16.9431 16.3504 16.4339 16.9183 15.81C17.4621 15.2624 17.8857 14.6073 18.1621 13.8867C18.4384 13.1661 18.5615 12.3958 18.5233 11.625C18.4755 10.346 18.0298 9.1137 17.2483 8.1L19.9933 5.355L21.2533 5.385ZM16.6783 11.67C16.7074 12.1896 16.6261 12.7095 16.44 13.1955C16.2539 13.6816 15.967 14.1227 15.5983 14.49C15.1814 14.9762 14.6714 15.374 14.0983 15.66C13.7053 15.8154 13.3518 16.0562 13.0633 16.365C12.8306 16.6389 12.6636 16.9624 12.5752 17.3108C12.4868 17.6592 12.4793 18.0233 12.5533 18.375C12.6403 18.7826 12.6196 19.2057 12.4934 19.6029C12.3671 20 12.1397 20.3575 11.8333 20.64C10.7057 21.6745 9.2143 22.2205 7.68524 22.1587C6.15617 22.0969 4.71377 21.4322 3.67333 20.31C2.54657 19.2003 1.88198 17.705 1.81333 16.125C1.77715 15.395 1.89166 14.6653 2.14972 13.9814C2.40778 13.2976 2.80387 12.6741 3.31333 12.15C3.59675 11.8449 3.95425 11.6182 4.35112 11.4921C4.748 11.3659 5.17075 11.3445 5.57833 11.43C5.93002 11.5052 6.29431 11.4983 6.6429 11.4098C6.9915 11.3214 7.31501 11.1538 7.58833 10.92C7.89261 10.6245 8.13707 10.2731 8.30833 9.885C8.58261 9.30876 8.97632 8.79744 9.46333 8.385C9.83119 8.01707 10.2724 7.73074 10.7583 7.54466C11.2442 7.35858 11.7638 7.27692 12.2833 7.305C13.0972 7.34397 13.8852 7.60319 14.5633 8.055L11.0983 11.595L12.4183 12.915L15.9283 9.39C16.3801 10.0681 16.6394 10.8561 16.6783 11.67Z" fill="black"/>
<path d="M8.74342 12.495C8.38589 12.4848 8.03 12.5473 7.69737 12.6788C7.36475 12.8103 7.06231 13.008 6.80842 13.26C6.29822 13.7717 6.01172 14.4649 6.01172 15.1875C6.01172 15.9101 6.29822 16.6032 6.80842 17.115C7.07418 17.3967 7.39514 17.6207 7.75128 17.773C8.10742 17.9253 8.49111 18.0025 8.87842 18C9.22352 18.001 9.56543 17.9339 9.88459 17.8027C10.2037 17.6714 10.4939 17.4785 10.7384 17.235C11.2486 16.7232 11.5351 16.0301 11.5351 15.3075C11.5351 14.5849 11.2486 13.8917 10.7384 13.38C10.2143 12.836 9.49841 12.5184 8.74342 12.495ZM9.44842 15.9C9.26403 16.0489 9.03108 16.1243 8.79442 16.1117C8.55776 16.0991 8.33411 15.9994 8.16653 15.8319C7.99896 15.6643 7.89929 15.4406 7.88671 15.204C7.87414 14.9673 7.94954 14.7344 8.09842 14.55C8.25331 14.4059 8.45687 14.3255 8.66842 14.325C8.92107 14.345 9.15927 14.4508 9.34342 14.625C9.43456 14.7014 9.50963 14.7952 9.5643 14.9009C9.61896 15.0065 9.65214 15.122 9.6619 15.2406C9.67167 15.3591 9.65783 15.4785 9.62118 15.5916C9.58454 15.7048 9.52582 15.8096 9.44842 15.9Z" fill="black"/>
</g>
</g>
<defs>
<clipPath id="clip0_946_5433">
<rect width="24" height="24" fill="white"/>
</clipPath>
<clipPath id="clip1_946_5433">
<rect width="24" height="24" fill="white"/>
</clipPath>
</defs>
</svg>
