<svg width="24" height="24" viewBox="0 0 24 24" fill="none" xmlns="http://www.w3.org/2000/svg">
<g clip-path="url(#clip0_946_5456)">
<path d="M19.8281 6.36915L10.6316 9.35715C10.5238 9.42682 10.3998 9.46762 10.2716 9.47565L7.11263 10.5001H20.2511C20.45 10.5001 20.6408 10.5792 20.7815 10.7198C20.9221 10.8605 21.0011 11.0512 21.0011 11.2501V18.7501C21.0011 19.7447 20.606 20.6985 19.9028 21.4018C19.1995 22.1051 18.2457 22.5001 17.2511 22.5001H6.75113C5.75657 22.5001 4.80274 22.1051 4.09948 21.4018C3.39622 20.6985 3.00113 19.7447 3.00113 18.7501V11.2501C3.00113 11.0911 3.05063 10.9426 3.13613 10.8196L2.84363 9.91665C2.53637 8.97082 2.6174 7.94167 3.06888 7.05558C3.52037 6.16949 4.30534 5.49902 5.25113 5.19165L15.2366 1.94715C16.1825 1.63989 17.2116 1.72091 18.0977 2.1724C18.9838 2.62388 19.6543 3.40885 19.9616 4.35465L20.3096 5.42415C20.3711 5.61331 20.3549 5.81914 20.2646 5.99636C20.1743 6.17358 20.0173 6.30767 19.8281 6.36915ZM14.2121 6.61665L16.1396 3.27765C15.9903 3.29488 15.8431 3.32705 15.7001 3.37365L13.8326 3.97965L11.8706 7.37715L14.2121 6.61665ZM17.6546 3.64815L17.6246 3.70365L16.3436 5.92365L18.6506 5.17365L18.5351 4.81815C18.3803 4.34088 18.0704 3.92906 17.6546 3.64815ZM11.6996 4.67265L9.35963 5.43315L7.39613 8.83065L9.73613 8.07015L11.6996 4.67265ZM4.38563 9.81015L5.26613 9.52515L7.22663 6.12615L5.71463 6.61815C5.14716 6.80257 4.67617 7.20485 4.40528 7.73651C4.13439 8.26816 4.08578 8.88565 4.27013 9.45315L4.38563 9.81015Z" fill="black"/>
</g>
<defs>
<clipPath id="clip0_946_5456">
<rect width="24" height="24" fill="white"/>
</clipPath>
</defs>
</svg>
