<svg width="24" height="24" viewBox="0 0 24 24" fill="none" xmlns="http://www.w3.org/2000/svg">
<g clip-path="url(#clip0_1040_563)">
<g clip-path="url(#clip1_1040_563)">
<path d="M19.5609 16.8797L16.2047 16.6547C15.9609 16.6406 15.7219 16.7062 15.525 16.8516C15.3281 16.9969 15.1875 17.1984 15.1312 17.4375L14.3063 20.7C13.5703 20.8969 12.7969 21 12 21C11.2031 21 10.4297 20.8969 9.69375 20.7L8.86875 17.4375C8.80781 17.2031 8.66719 16.9969 8.475 16.8516C8.28281 16.7062 8.03906 16.6406 7.79531 16.6547L4.43906 16.8797C3.61406 15.6047 3.10313 14.1047 3.01406 12.4922L5.85938 10.7016C6.06563 10.5703 6.21562 10.3734 6.29062 10.1437C6.36562 9.91406 6.35625 9.66562 6.26719 9.44062L5.01562 6.31875C6 5.11875 7.27969 4.17188 8.75156 3.60469L11.3391 5.76094C11.5266 5.91563 11.7609 6 12 6C12.2391 6 12.4781 5.91563 12.6609 5.76094L15.2484 3.60469C16.7156 4.17188 18 5.11875 18.9797 6.31875L17.7281 9.44062C17.6391 9.66562 17.6297 9.91406 17.7047 10.1437C17.7797 10.3734 17.9344 10.5703 18.1359 10.7016L20.9813 12.4922C20.8922 14.1047 20.3813 15.6047 19.5563 16.8797H19.5609ZM12 24C15.1826 24 18.2348 22.7357 20.4853 20.4853C22.7357 18.2348 24 15.1826 24 12C24 8.8174 22.7357 5.76516 20.4853 3.51472C18.2348 1.26428 15.1826 0 12 0C8.8174 0 5.76516 1.26428 3.51472 3.51472C1.26428 5.76516 0 8.8174 0 12C0 15.1826 1.26428 18.2348 3.51472 20.4853C5.76516 22.7357 8.8174 24 12 24ZM12.6609 8.73281C12.2672 8.44688 11.7328 8.44688 11.3391 8.73281L9.09375 10.3594C8.7 10.6453 8.53594 11.1516 8.68594 11.6156L9.54375 14.2547C9.69375 14.7188 10.125 15.0328 10.6125 15.0328H13.3875C13.875 15.0328 14.3062 14.7188 14.4562 14.2547L15.3141 11.6156C15.4641 11.1516 15.3 10.6453 14.9062 10.3594L12.6609 8.72812V8.73281Z" fill="black"/>
</g>
</g>
<defs>
<clipPath id="clip0_1040_563">
<rect width="24" height="24" fill="white"/>
</clipPath>
<clipPath id="clip1_1040_563">
<path d="M0 0H24V24H0V0Z" fill="white"/>
</clipPath>
</defs>
</svg>
