<svg width="30" height="24" viewBox="0 0 30 24" fill="none" xmlns="http://www.w3.org/2000/svg">
<g clip-path="url(#clip0_946_5410)">
<path d="M0 0H30V24H0V0Z" stroke="#E5E7EB"/>
<path d="M9 3C4.03125 3 0 7.03125 0 12C0 16.9688 4.03125 21 9 21H21C25.9688 21 30 16.9688 30 12C30 7.03125 25.9688 3 21 3H9ZM23.25 7.875C23.7473 7.875 24.2242 8.07254 24.5758 8.42417C24.9275 8.77581 25.125 9.25272 25.125 9.75C25.125 10.2473 24.9275 10.7242 24.5758 11.0758C24.2242 11.4275 23.7473 11.625 23.25 11.625C22.7527 11.625 22.2758 11.4275 21.9242 11.0758C21.5725 10.7242 21.375 10.2473 21.375 9.75C21.375 9.25272 21.5725 8.77581 21.9242 8.42417C22.2758 8.07254 22.7527 7.875 23.25 7.875ZM18.375 14.25C18.375 13.7527 18.5725 13.2758 18.9242 12.9242C19.2758 12.5725 19.7527 12.375 20.25 12.375C20.7473 12.375 21.2242 12.5725 21.5758 12.9242C21.9275 13.2758 22.125 13.7527 22.125 14.25C22.125 14.7473 21.9275 15.2242 21.5758 15.5758C21.2242 15.9275 20.7473 16.125 20.25 16.125C19.7527 16.125 19.2758 15.9275 18.9242 15.5758C18.5725 15.2242 18.375 14.7473 18.375 14.25ZM7.875 9.375C7.875 8.75156 8.37656 8.25 9 8.25C9.62344 8.25 10.125 8.75156 10.125 9.375V10.875H11.625C12.2484 10.875 12.75 11.3766 12.75 12C12.75 12.6234 12.2484 13.125 11.625 13.125H10.125V14.625C10.125 15.2484 9.62344 15.75 9 15.75C8.37656 15.75 7.875 15.2484 7.875 14.625V13.125H6.375C5.75156 13.125 5.25 12.6234 5.25 12C5.25 11.3766 5.75156 10.875 6.375 10.875H7.875V9.375Z" fill="black"/>
</g>
<defs>
<clipPath id="clip0_946_5410">
<rect width="30" height="24" fill="white"/>
</clipPath>
</defs>
</svg>
